:SAMPLES-PER-SECOND 30
:FRAME-RANGE 1-3549
:FULLY-SPECIFIED
:DEGREES
2440
root  2.97644 39.081 48.385 -176.599 -0.976196 177.324
RightUpLeg  -17.7777 1.54812 -11.6397
RightLeg  50.8025 -4.41835 -6.13564
RightFoot  -8.59829 -0.249904 7.9799
RightToes  1.218e-010 1.26228e-014 -6.01869e-014
Spine  -5.0251 2.24601 -5.23205
Spine1  11.2745 3.31718 -4.85817
HEad  13.2645 20.4553 2.25156
LeftShoulder1  1.1873 -1.56112 -18.0438
LeftArm  1.14 -5.40811 -49.5853
LeftForeArm  37.0848 -2.14547 -12.6109
LeftHand  -0.0802066 4.02813 5.36679
RightShoulder  2.29054 3.6158 27.1495
RightArm  -29.6777 5.01923 47.5997
RightForeArm  68.0603 -4.88016 0.550415
RightHand  -0.122003 -4.52551 -14.6231
LeftUpLeg  -14.8144 4.14159 -0.496367
LeftLeg  17.4742 3.61093 0.861431
LeftFoot  -7.39505 0.173211 -3.73953
LeftToes  -1.43952e-010 7.51141e-011 -1.22592e-011
2441
root  2.83439 39.1612 47.6942 -176.472 -1.48492 177.876
RightUpLeg  -19.6464 -0.833234 -10.3287
RightLeg  47.2567 -6.27855 -7.53751
RightFoot  -8.62335 -0.25159 8.11672
RightToes  1.218e-010 1.26228e-014 -6.01869e-014
Spine  -4.71777 1.70654 -5.23264
Spine1  10.6411 2.75929 -4.51158
HEad  13.0046 20.2042 2.65834
LeftShoulder1  1.26221 -1.9256 -17.7555
LeftArm  2.12578 -7.13507 -49.5854
LeftForeArm  36.4959 -2.63516 -12.728
LeftHand  -0.0864932 3.87031 5.34528
RightShoulder  2.24522 3.43756 27.3561
RightArm  -29.6816 4.4172 47.1551
RightForeArm  68.5044 -4.8689 0.583481
RightHand  -0.117002 -4.56103 -14.5252
LeftUpLeg  -13.5957 4.57073 -0.0336541
LeftLeg  16.9973 2.91021 0.486099
LeftFoot  -8.35461 0.146139 -3.6831
LeftToes  -1.43952e-010 7.51141e-011 -1.22592e-011
2442
root  2.69512 39.2483 46.9878 -176.43 -1.58972 178.453
RightUpLeg  -21.1357 -3.58386 -8.7923
RightLeg  42.3717 -9.19065 -9.14213
RightFoot  -7.78445 -0.314918 8.41949
RightToes  1.218e-010 1.26228e-014 -6.01869e-014
Spine  -4.45114 1.29623 -4.8794
Spine1  10.2252 2.34438 -4.12115
HEad  12.4508 20.1973 2.66636
LeftShoulder1  1.31517 -2.16104 -17.6803
LeftArm  1.81899 -8.77167 -49.6826
LeftForeArm  37.3512 -2.32472 -12.6894
LeftHand  -0.0892115 3.88577 5.36997
RightShoulder  2.19031 3.25091 27.4663
RightArm  -29.6713 3.57558 46.5825
RightForeArm  68.9615 -4.86213 0.646505
RightHand  -0.0954663 -4.74043 -14.609
LeftUpLeg  -12.1855 4.95411 0.483335
LeftLeg  16.4543 2.45197 0.264369
LeftFoot  -9.25188 0.117432 -3.39657
LeftToes  -1.43952e-010 7.51141e-011 -1.22592e-011
2443
root  2.59135 39.3163 46.2501 -176.458 -1.07965 178.922
RightUpLeg  -22.3472 -5.62127 -7.31595
RightLeg  36.4209 -11.2015 -8.98839
RightFoot  -6.44918 -0.383885 7.9448
RightToes  1.218e-010 1.26228e-014 -6.01869e-014
Spine  -4.46191 1.07089 -4.44049
Spine1  10.2761 2.17139 -3.89449
HEad  11.8239 20.5242 2.56091
LeftShoulder1  1.35584 -2.36012 -17.5429
LeftArm  1.81673 -10.0139 -49.6905
LeftForeArm  37.4933 -2.05014 -12.7264
LeftHand  -0.0916671 3.92901 5.33859
RightShoulder  2.15813 3.13561 27.5657
RightArm  -29.6897 2.65782 45.9177
RightForeArm  69.3504 -4.85452 0.689691
RightHand  -0.0676985 -4.9678 -14.6864
LeftUpLeg  -10.6302 5.00927 0.830963
LeftLeg  16.0197 2.81243 0.599671
LeftFoot  -10.1395 0.0957393 -3.33089
LeftToes  -1.43952e-010 7.51141e-011 -1.22592e-011
2444
root  2.52838 39.3414 45.4777 -176.403 -0.246521 179.227
RightUpLeg  -23.2313 -6.95599 -6.13855
RightLeg  29.3154 -10.983 -6.82038
RightFoot  -5.3711 -0.478716 8.46232
RightToes  1.218e-010 1.26228e-014 -6.01869e-014
Spine  -4.59141 0.797261 -4.17976
Spine1  10.248 1.93561 -3.65865
HEad  11.2968 21.0411 2.29183
LeftShoulder1  1.37482 -2.43303 -17.5721
LeftArm  1.22627 -10.4013 -49.5577
LeftForeArm  37.8847 -1.66633 -12.6403
LeftHand  -0.0904183 3.9231 5.41596
RightShoulder  2.14674 3.08749 27.6412
RightArm  -29.8869 1.72013 45.1932
RightForeArm  69.9332 -4.8177 0.605876
RightHand  -0.0535787 -5.07905 -14.4934
LeftUpLeg  -9.16203 5.1205 1.07486
LeftLeg  15.7367 3.43941 0.92407
LeftFoot  -11.0803 0.0744031 -3.50289
LeftToes  -1.43952e-010 7.51141e-011 -1.22592e-011
2445
root  2.50545 39.3402 44.6615 -176.275 0.681763 179.327
RightUpLeg  -23.6275 -7.40216 -5.33325
RightLeg  21.4358 -9.09773 -4.11875
RightFoot  -4.57332 -0.542137 8.62456
RightToes  1.218e-010 1.26228e-014 -6.01869e-014
Spine  -4.87957 0.48005 -4.17896
Spine1  10.2524 1.62622 -3.30368
HEad  10.7407 21.4689 2.05021
LeftShoulder1  1.37403 -2.43981 -17.5266
LeftArm  0.961602 -9.99911 -49.3426
LeftForeArm  37.6518 -1.57337 -12.6119
LeftHand  -0.0893159 3.96884 5.44699
RightShoulder  2.08818 2.89518 27.7369
RightArm  -30.0516 0.723117 44.5509
RightForeArm  70.6048 -4.77971 0.536626
RightHand  0.00813384 -5.57846 -14.764
LeftUpLeg  -7.57723 5.15403 1.14932
LeftLeg  15.284 4.20405 1.2411
LeftFoot  -12.0623 0.0476282 -3.91814
LeftToes  -1.43952e-010 7.51141e-011 -1.22592e-011
